<svg width="57" height="13" viewBox="0 0 57 13" fill="none" xmlns="http://www.w3.org/2000/svg">
<g clip-path="url(#clip0)">
<path d="M11.2029 0.435547C7.92244 0.435547 5.31299 3.13175 5.31299 6.43555C5.31299 9.77731 7.95973 12.4355 11.2029 12.4355C14.4461 12.4355 17.0928 9.73934 17.0928 6.43555C17.1301 3.13175 14.4461 0.435547 11.2029 0.435547ZM11.2029 8.67604C10.01 8.67604 9.0035 7.65074 9.0035 6.43555C9.0035 5.22035 10.01 4.19505 11.2029 4.19505C12.3958 4.19505 13.4023 5.22035 13.4023 6.43555C13.4023 7.65074 12.4331 8.67604 11.2029 8.67604Z" fill="#8B3FFD"/>
<path d="M5.31277 2.18262V10.9168H3.18792L0.503906 2.18262H5.31277Z" fill="#8B3FFD"/>
<path d="M55.0044 3.73926L53.6997 7.00508C53.6625 7.04305 53.6625 7.11899 53.6625 7.15698L53.625 7.23291L53.5878 7.15698C53.5878 7.11899 53.5505 7.04305 53.5505 7.00508L52.2458 3.73926H50.5684L52.7677 9.32154L51.8359 11.4481H53.5133L56.6074 3.73926H55.0044Z" fill="black"/>
<path d="M42.6277 4.04382C42.3294 3.81597 41.9567 3.66407 41.5093 3.6261C40.7639 3.55014 40.0557 3.81597 39.571 4.30965V3.70206H38.0425V9.28434H39.571V6.36028C39.571 5.7147 39.6827 5.52484 39.7946 5.37294C39.981 5.06915 40.3165 4.91726 40.7266 4.91726C41.1366 4.91726 41.5093 5.10712 41.6959 5.41091C41.8076 5.63877 41.8448 5.94256 41.8448 6.09446C41.8448 6.58814 41.8448 9.28434 41.8448 9.28434H43.3733V5.90459C43.3733 5.03116 43.1123 4.42358 42.6277 4.04382Z" fill="black"/>
<path d="M35.1351 3.77796C34.3896 3.51213 33.5695 3.55012 32.8238 3.89188C32.3392 4.11974 31.8921 4.49947 31.631 4.99315C31.37 5.41087 31.2583 5.94252 31.2583 6.51213C31.2583 7.08175 31.37 7.6134 31.631 8.03112C31.8921 8.44884 32.2275 8.82859 32.6747 9.05645C33.1221 9.2843 33.644 9.4362 34.1286 9.4362C34.3896 9.4362 34.6504 9.3982 34.9115 9.32227C35.1351 9.24631 35.3589 9.17037 35.5825 9.05645C36.0299 8.79062 36.4026 8.44884 36.6264 8.03112C36.8872 7.6134 36.9991 7.08175 36.9991 6.51213C37.0363 5.25897 36.3281 4.19568 35.1351 3.77796ZM35.5825 6.58809C35.5452 7.08175 35.3961 7.49947 35.0978 7.76529C34.8742 7.95518 34.5388 8.06911 34.1286 8.10708C33.7186 8.10708 33.4204 7.99315 33.1593 7.76529C32.8613 7.49947 32.7122 7.08175 32.6747 6.58809C32.6375 6.01848 32.8613 5.56276 33.2712 5.25897C33.4948 5.10708 33.7931 4.99315 34.0914 4.99315C34.4268 4.99315 34.6879 5.10708 34.9487 5.25897C35.3961 5.5248 35.6197 6.01848 35.5825 6.58809Z" fill="black"/>
<path d="M29.5063 4.04272C29.208 3.81489 28.8353 3.66299 28.3879 3.625C28.3134 3.625 28.2015 3.625 28.1271 3.625C27.5305 3.625 27.0087 3.89082 26.5613 4.42247L26.4869 4.5364H26.3377C26.2258 4.34654 26.0767 4.19464 25.9275 4.08071C25.6293 3.85286 25.2566 3.70096 24.8092 3.66299C24.101 3.58703 23.5418 3.81489 23.0572 4.34654V3.77692H21.5288V9.35918H23.0572V6.43514V6.35918C23.0572 5.75159 23.1318 5.5997 23.2436 5.40983C23.43 5.10602 23.7655 4.91615 24.1382 4.95412C24.5111 4.95412 24.8466 5.14401 25.033 5.4478C25.1821 5.67563 25.1821 5.94146 25.1821 6.20728V9.32121H26.7104V6.32121C26.7104 5.75159 26.7849 5.56173 26.8968 5.37184C27.0831 5.06805 27.4186 4.91615 27.7916 4.91615C28.1643 4.91615 28.4626 5.10602 28.6489 5.40983C28.7608 5.5997 28.7981 5.82755 28.7981 5.97945C28.7981 6.05538 28.7981 6.13134 28.7981 6.16931V9.28324H30.3264V5.86552C30.3264 5.56173 30.2892 5.25791 30.2145 4.99209C30.0656 4.61236 29.8418 4.27058 29.5063 4.04272Z" fill="black"/>
<path d="M49.1144 7.61239C48.8908 7.84024 48.3687 8.25796 47.6605 8.29593C47.064 8.3339 46.6168 8.14403 46.2813 7.80227C46.1322 7.65035 46.0203 7.42252 45.9459 7.19467H50.1581V7.1567C50.1955 6.92884 50.2328 6.73898 50.2328 6.51112C50.2328 6.32126 50.1955 6.05543 50.1209 5.71365C49.9345 5.06807 49.5618 4.57442 49.0772 4.19467C48.5179 3.77695 47.996 3.66302 47.8469 3.66302C46.766 3.47315 45.5357 3.96681 44.9019 4.99214C44.4545 5.71365 44.492 6.43516 44.492 6.66302C44.492 6.92884 44.5292 7.76428 45.2002 8.52379C45.9831 9.39719 47.064 9.43516 47.3995 9.47315C48.8908 9.51112 49.8973 8.56175 50.1209 8.37189L49.1144 7.61239ZM46.5049 5.25796C46.7285 5.10607 46.9895 4.99214 47.325 4.99214C47.6605 4.99214 47.9216 5.10607 48.1824 5.25796C48.4062 5.44783 48.5925 5.67568 48.7042 5.94151H46.0203C46.0575 5.67568 46.2439 5.40986 46.5049 5.25796Z" fill="black"/>
</g>
<defs>
<clipPath id="clip0">
<rect width="56.3077" height="12" fill="white" transform="translate(0.503906 0.435547)"/>
</clipPath>
</defs>
</svg>
