<svg width="24" height="24" viewBox="0 0 24 24" fill="none" xmlns="http://www.w3.org/2000/svg">
<path d="M21.6614 12.5847L21.6614 12.5847L21.665 12.579C22.5131 11.2581 23 9.87036 23 8.46983C23 6.56665 22.4606 4.97161 21.2784 3.77217C20.1036 2.58025 18.5437 2 16.6691 2C15.5375 2 14.4679 2.40172 13.4052 3.09153C12.9248 3.40137 12.4504 3.76292 11.9919 4.16294C11.5422 3.7704 11.0819 3.40574 10.5948 3.09151C9.52795 2.39902 8.42208 2 7.33088 2C5.42322 2 3.86182 2.57803 2.68485 3.77217C1.49174 4.98269 1 6.58652 1 8.46983C1 9.90168 1.48192 11.3308 2.41374 12.7038C2.8727 13.4284 3.32509 14.0052 3.8471 14.4707L10.6929 21.4624C11.0659 21.8513 11.5679 22 12 22C12.4997 22 12.9049 21.8086 13.2333 21.5314L13.2696 21.5008L13.3028 21.4669L20.1707 14.4525C20.7512 13.8823 21.2348 13.2393 21.6614 12.5847Z" fill="#99AFFF" fill-opacity="0.2" stroke="white" stroke-width="2"/>
</svg>
