<svg width="12" height="12" viewBox="0 0 12 12" fill="none" xmlns="http://www.w3.org/2000/svg">
<path d="M10.4092 0.108598C10.6904 -0.0320265 10.9951 -0.0320265 11.2764 0.085161C11.5576 0.202348 11.7686 0.413286 11.9092 0.694536C12.0264 0.999223 12.0264 1.30391 11.8857 1.58516L7.40918 11.3352C7.22168 11.6867 6.96387 11.8977 6.63574 11.968C6.28418 12.0383 5.95605 11.968 5.6748 11.757C5.39355 11.5695 5.25293 11.2648 5.25293 10.8664V6.74141H1.12793C0.729492 6.74141 0.424805 6.60079 0.237305 6.31954C0.0263672 6.03829 -0.0439453 5.71016 0.0263672 5.3586C0.0966797 5.03047 0.307617 4.77266 0.65918 4.58516L10.4092 0.108598Z" fill="#4D69CD"/>
</svg>
