<svg width="21" height="13" viewBox="0 0 21 13" fill="none" xmlns="http://www.w3.org/2000/svg">
<path d="M20.0859 6.43555C20.0859 9.72785 17.409 12.4355 14.0859 12.4355C10.7936 12.4355 8.08594 9.72785 8.08594 6.43555C8.08594 3.14324 10.7629 0.435547 14.0552 0.435547C17.409 0.435547 20.0859 3.14324 20.0859 6.43555Z" fill="#F9B50B"/>
<path d="M12.0552 6.46632C12.0552 6.03555 11.9936 5.60478 11.9321 5.20478H8.23978C8.27055 4.98939 8.33209 4.80478 8.39363 4.55862H11.6859C11.6244 4.34324 11.5321 4.12785 11.4398 3.91247H8.63978C8.73209 3.69709 8.85517 3.51247 8.97825 3.26632H11.1013C10.9782 3.05093 10.8244 2.83555 10.6398 2.62016H9.47055C9.65517 2.40478 9.83978 2.22016 10.0859 2.00478C9.03978 1.02016 7.6244 0.435547 6.05517 0.435547C2.79363 0.527855 0.0859375 3.14324 0.0859375 6.43555C0.0859375 9.72785 2.76286 12.4355 6.08594 12.4355C7.65517 12.4355 9.03978 11.8202 10.1167 10.8663C10.3321 10.6817 10.5167 10.4663 10.7321 10.2202H9.50132C9.34748 10.0355 9.19363 9.82016 9.07055 9.60478H11.1629C11.2859 9.42016 11.409 9.20478 11.5013 8.95862H8.70132C8.60901 8.77401 8.51671 8.55862 8.45517 8.31247H11.7475C11.9321 7.75862 12.0552 7.14324 12.0552 6.46632Z" fill="#C8191C"/>
<path d="M8.20872 7.97383L8.30103 7.41998C8.27026 7.41998 8.20872 7.45075 8.14718 7.45075C7.9318 7.45075 7.90103 7.32767 7.9318 7.26614L8.11641 6.15844H8.45488L8.54718 5.54306H8.23949L8.30103 5.17383H7.65488C7.65488 5.17383 7.28564 7.26614 7.28564 7.51229C7.28564 7.88152 7.50103 8.06614 7.80872 8.06614C7.99334 8.06614 8.14718 8.0046 8.20872 7.97383Z" fill="white"/>
<path d="M8.42432 6.95836C8.42432 7.85067 9.0397 8.06605 9.53201 8.06605C9.99355 8.06605 10.2089 7.97374 10.2089 7.97374L10.332 7.35836C10.332 7.35836 9.99355 7.51221 9.65509 7.51221C8.94739 7.51221 9.07047 6.98913 9.07047 6.98913H10.3628C10.3628 6.98913 10.4551 6.58913 10.4551 6.40451C10.4551 6.00451 10.2397 5.48144 9.53201 5.48144C8.91662 5.45067 8.42432 6.15836 8.42432 6.95836ZM9.53201 6.03528C9.87047 6.03528 9.80893 6.43528 9.80893 6.46605H9.10124C9.13201 6.43528 9.19355 6.03528 9.53201 6.03528Z" fill="white"/>
<path d="M13.5629 7.9739L13.686 7.26621C13.686 7.26621 13.3783 7.42006 13.1322 7.42006C12.7014 7.42006 12.486 7.0816 12.486 6.6816C12.486 5.91236 12.8552 5.51236 13.3168 5.51236C13.6245 5.51236 13.9014 5.69698 13.9014 5.69698L13.9937 5.02006C13.9937 5.02006 13.6245 4.86621 13.2552 4.86621C12.5168 4.86621 11.8091 5.51236 11.8091 6.71236C11.8091 7.51236 12.1783 8.03544 12.9475 8.03544C13.2245 8.06621 13.5629 7.9739 13.5629 7.9739Z" fill="white"/>
<path d="M4.73223 5.4502C4.30146 5.4502 3.963 5.57327 3.963 5.57327L3.87069 6.12712C3.87069 6.12712 4.14761 6.00404 4.57838 6.00404C4.79377 6.00404 4.97838 6.03481 4.97838 6.21943C4.97838 6.3425 4.94761 6.37327 4.94761 6.37327H4.67069C4.11684 6.37327 3.53223 6.58866 3.53223 7.32712C3.53223 7.91173 3.90146 8.03481 4.14761 8.03481C4.57838 8.03481 4.79377 7.75789 4.82453 7.75789L4.79377 8.00404H5.31684L5.563 6.2502C5.563 5.48096 4.94761 5.4502 4.73223 5.4502ZM4.8553 6.86558C4.8553 6.95789 4.79377 7.48096 4.42453 7.48096C4.23992 7.48096 4.17838 7.32712 4.17838 7.23481C4.17838 7.08096 4.27069 6.86558 4.763 6.86558C4.82453 6.86558 4.8553 6.86558 4.8553 6.86558Z" fill="white"/>
<path d="M6.17841 8.03628C6.33226 8.03628 7.13226 8.06705 7.13226 7.20551C7.13226 6.40551 6.36303 6.55936 6.36303 6.25167C6.36303 6.09782 6.4861 6.03628 6.70149 6.03628C6.7938 6.03628 7.13226 6.06705 7.13226 6.06705L7.22456 5.48244C7.22456 5.48244 7.00918 5.4209 6.60918 5.4209C6.14764 5.4209 5.65533 5.60551 5.65533 6.25167C5.65533 6.99013 6.45533 6.92859 6.45533 7.20551C6.45533 7.39013 6.23995 7.4209 6.0861 7.4209C5.80918 7.4209 5.50149 7.32859 5.50149 7.32859L5.40918 7.91321C5.47072 7.97474 5.65533 8.03628 6.17841 8.03628Z" fill="white"/>
<path d="M18.8549 4.95898L18.7319 5.82052C18.7319 5.82052 18.4857 5.51283 18.1165 5.51283C17.5319 5.51283 17.0396 6.22052 17.0396 7.05129C17.0396 7.57437 17.2857 8.09745 17.8396 8.09745C18.2088 8.09745 18.4549 7.85129 18.4549 7.85129L18.4242 8.06668H19.0703L19.5319 5.02052L18.8549 4.95898ZM18.5472 6.62052C18.5472 6.95898 18.3934 7.42052 18.0242 7.42052C17.8088 7.42052 17.6857 7.23591 17.6857 6.89745C17.6857 6.37437 17.9011 6.06668 18.2088 6.06668C18.4242 6.09745 18.5472 6.25129 18.5472 6.62052Z" fill="white"/>
<path d="M1.25503 8.00514L1.62426 5.72822L1.6858 8.00514H2.11657L2.94734 5.72822L2.60888 8.00514H3.2858L3.80888 4.95898H2.76273L2.11657 6.83591L2.0858 4.95898H1.16273L0.639648 8.00514H1.25503Z" fill="white"/>
<path d="M11.1012 8.00403C11.2859 6.95787 11.3166 6.09633 11.7782 6.25018C11.8397 5.85018 11.932 5.66556 11.9936 5.51172H11.8705C11.5936 5.51172 11.3474 5.88095 11.3474 5.88095L11.4089 5.54249H10.7936L10.3936 8.00403H11.1012Z" fill="white"/>
<path d="M15.0398 5.4502C14.6091 5.4502 14.2706 5.57327 14.2706 5.57327L14.1783 6.12712C14.1783 6.12712 14.4552 6.00404 14.886 6.00404C15.1014 6.00404 15.286 6.03481 15.286 6.21943C15.286 6.3425 15.2552 6.37327 15.2552 6.37327H14.9783C14.4245 6.37327 13.8398 6.58866 13.8398 7.32712C13.8398 7.91173 14.2091 8.03481 14.4552 8.03481C14.886 8.03481 15.1014 7.75789 15.1322 7.75789L15.1014 8.00404H15.686L15.9322 6.2502C15.9322 5.48096 15.2552 5.4502 15.0398 5.4502ZM15.1937 6.86558C15.1937 6.95789 15.1322 7.48096 14.7629 7.48096C14.5783 7.48096 14.5168 7.32712 14.5168 7.23481C14.5168 7.08096 14.6091 6.86558 15.1014 6.86558C15.1629 6.86558 15.1629 6.86558 15.1937 6.86558Z" fill="white"/>
<path d="M16.4245 8.00403C16.6091 6.95787 16.6399 6.09633 17.1014 6.25018C17.163 5.85018 17.2553 5.66556 17.3168 5.51172H17.1937C16.9168 5.51172 16.6706 5.88095 16.6706 5.88095L16.7322 5.54249H16.1168L15.7168 8.00403H16.4245Z" fill="white"/>
</svg>
