<svg width="42" height="13" viewBox="0 0 42 13" fill="none" xmlns="http://www.w3.org/2000/svg">
<path d="M37.2459 0.435547H29.272C29.7365 3.06772 32.2912 5.54506 35.0782 5.54506H41.4264C41.5038 5.31281 41.5038 4.92572 41.5038 4.69347C41.5038 2.37097 39.5684 0.435547 37.2459 0.435547Z" fill="url(#paint0_linear)"/>
<path d="M29.9688 6.00977V12.4353H33.8396V9.02901H37.2459C39.1039 9.02901 40.7297 7.71293 41.2716 6.00977H29.9688Z" fill="#4FAD50"/>
<path d="M16.3433 0.435547V12.3577H19.7496C19.7496 12.3577 20.6012 12.3577 21.0657 11.5061C23.3882 6.93855 24.0849 5.54506 24.0849 5.54506H24.5494V12.3577H28.4203V0.435547H25.0139C25.0139 0.435547 24.1624 0.512968 23.6979 1.28714C21.7624 5.23539 20.6786 7.24822 20.6786 7.24822H20.2141V0.435547H16.3433Z" fill="#4FAD50"/>
<path d="M0.0859375 12.4349V0.512695H3.95677C3.95677 0.512695 5.04062 0.512693 5.65995 2.21586C7.20829 6.70603 7.36313 7.32537 7.36313 7.32537C7.36313 7.32537 7.67278 6.24153 9.06628 2.21586C9.68562 0.512693 10.7695 0.512695 10.7695 0.512695H14.6403V12.4349H10.7695V6.00929H10.305L8.1373 12.4349H6.43412L4.26646 6.00929H3.80195V12.4349H0.0859375Z" fill="#4FAD50"/>
<defs>
<linearGradient id="paint0_linear" x1="29.2582" y1="3.02692" x2="41.4764" y2="3.02692" gradientUnits="userSpaceOnUse">
<stop stop-color="#27B1E6"/>
<stop offset="1" stop-color="#148ACA"/>
</linearGradient>
</defs>
</svg>
