<svg width="15" height="15" viewBox="0 0 15 15" fill="none" xmlns="http://www.w3.org/2000/svg">
<path d="M0.556597 0.715468C0.380829 0.744799 0.263651 0.832794 0.146473 0.950121C0.058589 1.09678 0 1.24344 0 1.3901C0 3.85396 0.615186 6.14183 1.84556 8.25371C3.07593 10.3069 4.68713 11.9495 6.73775 13.1521C8.84696 14.384 11.1319 15 13.5927 15C13.7684 15 13.9149 14.9707 14.0321 14.8533C14.1786 14.7653 14.2664 14.6187 14.2664 14.4427L14.9695 11.3922C15.0281 11.2455 14.9988 11.0989 14.9109 10.9229C14.8523 10.7762 14.7352 10.6589 14.5594 10.6002L11.2784 9.19233C11.1612 9.13366 11.0148 9.13366 10.8683 9.16299C10.7218 9.22166 10.5753 9.28032 10.4582 9.39765L9.02272 11.1575C7.88024 10.6296 6.85493 9.92562 5.97609 9.01634C5.09725 8.13638 4.36489 7.10978 3.83759 5.96584L5.59526 4.52859C5.71244 4.41126 5.80032 4.29393 5.82962 4.14727C5.88821 4.00062 5.85891 3.85396 5.80032 3.7073L4.39418 0.422151C4.33559 0.275492 4.24771 0.158165 4.07194 0.0701703C3.92547 0.011507 3.779 -0.0178247 3.60323 0.011507L0.556597 0.715468Z" fill="#393939"/>
</svg>
