<svg width="15" height="15" viewBox="0 0 15 15" fill="none" xmlns="http://www.w3.org/2000/svg">
<path d="M7.5 0C8.83064 0 10.1008 0.362903 11.25 1.02823C12.3992 1.69355 13.3065 2.60081 13.9718 3.75C14.6371 4.89919 15 6.16935 15 7.5C15 8.86089 14.6371 10.1008 13.9718 11.25C13.3065 12.3992 12.3992 13.3367 11.25 14.002C10.1008 14.6673 8.83064 15 7.5 15C6.13911 15 4.89919 14.6673 3.75 14.002C2.60081 13.3367 1.66331 12.3992 0.997984 11.25C0.332661 10.1008 0 8.86089 0 7.5C0 6.16935 0.332661 4.89919 0.997984 3.75C1.66331 2.60081 2.60081 1.69355 3.75 1.02823C4.89919 0.362903 6.13911 0 7.5 0ZM11.1895 5.14113C11.2198 4.89919 11.1895 4.74798 11.0685 4.62702C10.9476 4.50605 10.8266 4.47581 10.6754 4.53629L3.44758 7.34879C3.1754 7.43952 3.02419 7.53024 3.02419 7.65121C3.02419 7.77218 3.11492 7.8629 3.35685 7.92339L5.20161 8.49798L9.49597 5.80645C9.58669 5.74597 9.67742 5.74597 9.7379 5.74597C9.79839 5.77621 9.79839 5.80645 9.7379 5.86694L6.26008 9.0121L6.10887 10.9173C6.22984 10.9173 6.38105 10.8569 6.50202 10.7359L7.40927 9.85887L9.28427 11.25C9.64718 11.4617 9.85887 11.371 9.9496 10.9476L11.1895 5.14113Z" fill="#393939"/>
</svg>
