<svg width="40" height="12" viewBox="0 0 40 12" fill="none" xmlns="http://www.w3.org/2000/svg">
<path d="M36.4572 0.171875H34.0001C33.2572 0.171875 32.6858 0.400446 32.3429 1.1433L27.6572 11.829H30.9715C30.9715 11.829 31.5429 10.4004 31.6572 10.0576C32.0001 10.0576 35.2572 10.0576 35.7144 10.0576C35.8287 10.4576 36.1144 11.7719 36.1144 11.7719H39.0858L36.4572 0.171875ZM32.5715 7.65759C32.8572 6.97188 33.8287 4.40045 33.8287 4.40045C33.8287 4.45759 34.1144 3.71473 34.2287 3.31473L34.4572 4.3433C34.4572 4.3433 35.0858 7.1433 35.2001 7.71473H32.5715V7.65759Z" fill="#3362AB"/>
<path d="M27.8855 8C27.8855 10.4 25.7141 12 22.3427 12C20.9141 12 19.5427 11.7143 18.7998 11.3714L19.2569 8.74286L19.6569 8.91429C20.6855 9.37143 21.3712 9.54286 22.6284 9.54286C23.5427 9.54286 24.5141 9.2 24.5141 8.4C24.5141 7.88571 24.1141 7.54286 22.8569 6.97143C21.6569 6.4 20.0569 5.48571 20.0569 3.82857C20.0569 1.54286 22.2855 0 25.4284 0C26.6284 0 27.6569 0.228571 28.2855 0.514286L27.8284 3.02857L27.5998 2.8C27.0284 2.57143 26.2855 2.34286 25.1998 2.34286C23.9998 2.4 23.4284 2.91429 23.4284 3.37143C23.4284 3.88571 24.1141 4.28571 25.1998 4.8C27.0284 5.65714 27.8855 6.62857 27.8855 8Z" fill="#3362AB"/>
<path d="M0 0.285212L0.0571429 0.0566406H4.97143C5.65714 0.0566406 6.17143 0.285212 6.34286 1.02807L7.42857 6.17093C6.34286 3.42807 3.82857 1.1995 0 0.285212Z" fill="#F9B50B"/>
<path d="M14.3431 0.171401L9.37164 11.7714H6.00021L3.14307 2.05712C5.20021 3.3714 6.91449 5.42854 7.54307 6.85712L7.88592 8.05712L10.9716 0.114258H14.3431V0.171401Z" fill="#3362AB"/>
<path d="M15.6572 0.114258H18.8001L16.8001 11.7714H13.6572L15.6572 0.114258Z" fill="#3362AB"/>
</svg>
